<svg width="81" height="78" viewBox="0 0 81 78" fill="none" xmlns="http://www.w3.org/2000/svg">
<g clip-path="url(#clip0_106_293)">
<path fill-rule="evenodd" clip-rule="evenodd" d="M80.2581 38.8305C80.2581 60.276 62.4087 77.661 40.3905 77.661C18.3723 77.661 0.522949 60.276 0.522949 38.8305C0.522949 17.385 18.3723 0 40.3905 0C62.4087 0 80.2581 17.385 80.2581 38.8305ZM34.3602 38.8292V61.2413H41.9213V38.8292H49.5151L50.7154 31.4001H41.9213V27.6781C41.9213 25.7412 42.5725 23.8917 45.4301 23.8917H51.1366V16.4779H43.0325C36.2204 16.4779 34.3602 20.8476 34.3602 26.9075V31.4001H29.6838V38.8292H34.3602Z" fill="white" fill-opacity="0.22"/>
</g>
<defs>
<clipPath id="clip0_106_293">
<rect width="79.7351" height="77.661" fill="white" transform="translate(0.522949)"/>
</clipPath>
</defs>
</svg>
