<svg width="79" height="78" viewBox="0 0 79 78" fill="none" xmlns="http://www.w3.org/2000/svg">
<g clip-path="url(#clip0_106_301)">
<path fill-rule="evenodd" clip-rule="evenodd" d="M39.3243 0.338989C60.9548 0.338989 78.5161 17.7384 78.5161 39.1695C78.5161 60.6006 60.9548 78 39.3243 78C17.6937 78 0.132416 60.6006 0.132416 39.1695C0.132416 17.7384 17.6937 0.338989 39.3243 0.338989ZM39.3243 14.9004C32.6719 14.9004 31.8377 14.9283 29.225 15.0465C26.6178 15.1644 24.8372 15.5747 23.279 16.1746C21.6683 16.7948 20.3023 17.6246 18.9405 18.9738C17.5788 20.3231 16.7412 21.6765 16.1152 23.2723C15.5097 24.816 15.0957 26.5802 14.9766 29.1634C14.8575 31.752 14.8294 32.5785 14.8294 39.1695C14.8294 45.7605 14.8575 46.587 14.9766 49.1756C15.0957 51.7588 15.5097 53.523 16.1152 55.0666C16.7412 56.6625 17.5788 58.0159 18.9405 59.3653C20.3023 60.7145 21.6683 61.5444 23.279 62.1646C24.8372 62.7643 26.6178 63.1746 29.225 63.2925C31.8377 63.4107 32.6719 63.4386 39.3243 63.4386C45.9766 63.4386 46.8108 63.4107 49.4235 63.2925C52.0307 63.1746 53.8113 62.7643 55.3694 62.1646C56.9801 61.5444 58.3461 60.7145 59.708 59.3653C61.0698 58.0159 61.9074 56.6625 62.5334 55.0666C63.1387 53.523 63.5528 51.7588 63.6718 49.1756C63.791 46.587 63.8192 45.7605 63.8192 39.1695C63.8192 32.5785 63.791 31.752 63.6718 29.1634C63.5528 26.5802 63.1387 24.816 62.5334 23.2723C61.9074 21.6765 61.0698 20.3231 59.708 18.9738C58.3461 17.6246 56.9801 16.7948 55.3694 16.1746C53.8113 15.5747 52.0307 15.1644 49.4235 15.0465C46.8108 14.9283 45.9766 14.9004 39.3243 14.9004ZM39.3243 19.2733C45.8647 19.2733 46.6394 19.298 49.2224 19.4148C51.6106 19.5228 52.9075 19.9181 53.7706 20.2504C54.9141 20.6906 55.7301 21.2166 56.5871 22.0659C57.4444 22.915 57.9752 23.7236 58.4194 24.8564C58.7549 25.7115 59.154 26.9964 59.2628 29.3627C59.3807 31.9218 59.4057 32.6894 59.4057 39.1695C59.4057 45.6496 59.3807 46.4172 59.2628 48.9763C59.154 51.3426 58.7549 52.6275 58.4194 53.4826C57.9752 54.6155 57.4444 55.424 56.5871 56.2731C55.7301 57.1225 54.9141 57.6484 53.7706 58.0886C52.9075 58.4209 51.6106 58.8164 49.2224 58.9242C46.6398 59.041 45.8652 59.0657 39.3243 59.0657C32.7834 59.0657 32.0089 59.041 29.4262 58.9242C27.0379 58.8164 25.7411 58.4209 24.8779 58.0886C23.7345 57.6484 22.9185 57.1225 22.0613 56.2731C21.2042 55.424 20.6734 54.6155 20.2291 53.4826C19.8937 52.6275 19.4946 51.3426 19.3856 48.9763C19.2677 46.4172 19.2429 45.6496 19.2429 39.1695C19.2429 32.6894 19.2677 31.9218 19.3856 29.3627C19.4946 26.9964 19.8937 25.7115 20.2291 24.8564C20.6734 23.7236 21.2042 22.915 22.0613 22.0659C22.9185 21.2166 23.7345 20.6906 24.8779 20.2504C25.7411 19.9181 27.0379 19.5228 29.4262 19.4148C32.0092 19.298 32.7838 19.2733 39.3243 19.2733ZM39.3243 26.707C32.3774 26.707 26.7458 32.2866 26.7458 39.1695C26.7458 46.0524 32.3774 51.632 39.3243 51.632C46.2712 51.632 51.9027 46.0524 51.9027 39.1695C51.9027 32.2866 46.2712 26.707 39.3243 26.707ZM39.3243 47.2591C34.8149 47.2591 31.1594 43.6373 31.1594 39.1695C31.1594 34.7017 34.8149 31.0799 39.3243 31.0799C43.8336 31.0799 47.4892 34.7017 47.4892 39.1695C47.4892 43.6373 43.8336 47.2591 39.3243 47.2591ZM55.3392 26.2147C55.3392 27.8231 54.0231 29.1268 52.3997 29.1268C50.7764 29.1268 49.4604 27.8231 49.4604 26.2147C49.4604 24.6062 50.7764 23.3024 52.3997 23.3024C54.0231 23.3024 55.3392 24.6062 55.3392 26.2147Z" fill="white" fill-opacity="0.22"/>
</g>
<defs>
<clipPath id="clip0_106_301">
<rect width="78.3837" height="77.661" fill="white" transform="translate(0.132416 0.338989)"/>
</clipPath>
</defs>
</svg>
