<svg width="79" height="82" viewBox="0 0 79 82" fill="none" xmlns="http://www.w3.org/2000/svg">
<path d="M61.1751 73.0377C69.6617 73.0377 76.5415 65.96 76.5415 57.2292C76.5415 48.4984 69.6617 41.4207 61.1751 41.4207C52.6885 41.4207 45.8087 48.4984 45.8087 57.2292C45.8087 65.96 52.6885 73.0377 61.1751 73.0377Z" fill="white"/>
<path d="M26.405 39.8851L23.0772 43.1576L23.689 47.1097L30.5891 53.7302L34.602 54.3091L38.0032 50.7094L47.6194 51.4394L57.9207 48.6453L65.7263 41.4207L68.9072 29.5643L63.6464 16.2982L52.8068 8.82192L41.9671 7.86536L31.2009 13.353L26.0135 20.5273L23.7624 27.9281L26.405 39.8851Z" fill="#B6E128"/>
<path d="M61.8602 29.8412C61.8602 38.3748 52.5376 45.2973 43.6555 45.2973C34.7733 45.2973 29.7328 37.7455 29.7328 29.8412C29.8732 25.6055 31.6429 21.6005 34.653 18.7068C37.663 15.8131 41.6669 14.2677 45.7843 14.4103C49.904 14.2676 53.9105 15.8123 56.9244 18.7053C59.9384 21.5982 61.7135 25.6032 61.8602 29.8412Z" fill="white"/>
<path d="M10.2801 62.1127L15.6387 68.4059L13.6323 72.0056L9.59495 73.2642L5.50867 70.2183L5.04376 65.36L10.2801 62.1127Z" fill="#B6E128"/>
<path d="M49.9684 21.4083C47.4686 21.605 45.075 22.5306 43.0682 24.0766C42.1706 24.645 41.3482 25.3304 40.6214 26.1156C40.1075 26.6694 38.3458 28.3812 38.3458 29.1364C38.3458 30.4957 40.1565 28.0036 40.3033 27.8022C41.0732 26.7875 41.97 25.8819 42.9704 25.1087C44.8876 23.5611 47.1815 22.5858 49.6014 22.2894C50.1152 22.239 50.7514 21.4083 49.9684 21.4083Z" fill="#FFBBBC"/>
<path d="M39.3 21.5845C39.9867 20.9971 40.7056 20.4508 41.4533 19.9483C42.0161 19.5959 43.9001 19.2938 44.1693 18.8155C45.197 17.3555 41.0618 19.2183 40.7682 19.3945C39.7894 20.0238 36.8531 21.9873 36.8531 23.397C36.8531 24.8066 38.8351 21.9621 39.3 21.5845Z" fill="#FFBBBC"/>
<path d="M74.9999 56.2726C74.4127 55.5174 74.3882 56.4488 74.2169 56.7508C73.8137 58.1121 73.3148 59.4413 72.7243 60.7281C71.3126 62.54 69.489 63.9664 67.4146 64.8817C67.1455 65.0075 66.0688 65.3851 66.754 65.8886C67.4391 66.392 68.4668 65.3096 68.8338 65.1082C70.5763 64.1035 72.1135 62.7614 73.3605 61.1561C73.8988 60.5268 75.7585 57.2543 74.9999 56.2726Z" fill="#FFBBBC"/>
<path d="M76.9085 60.4764C76.1989 60.4764 74.168 64.1265 73.4339 64.7558C72.6999 65.3851 70.1796 66.7193 71.8924 66.8452C72.7244 66.8452 74.4616 64.9824 74.9755 64.3279C75.4893 63.6734 78.0585 60.4764 76.9085 60.4764Z" fill="#FFBBBC"/>
<path d="M59.1442 19.9232C57.3533 17.9766 55.1829 16.4411 52.7752 15.4174C50.3675 14.3936 47.7767 13.9046 45.1725 13.9824C42.1083 14.1452 39.1395 15.1331 36.563 16.8472C33.9865 18.5613 31.8928 20.9414 30.4913 23.7494C29.2983 26.8145 29.0102 30.1734 29.663 33.406C30.3158 36.6387 31.8806 39.6016 34.1616 41.9242C41.0128 49.476 51.7057 46.0525 57.8963 39.5579C60.3513 37.1127 62.0532 33.9788 62.79 30.5461C63.0646 28.604 62.8763 26.6224 62.2412 24.7718C61.606 22.9213 60.5432 21.2573 59.1442 19.9232ZM60.8081 32.5095C60.2538 31.3667 59.4434 30.3757 58.4436 29.6185C57.4438 28.8613 56.2833 28.3596 55.0579 28.1547C46.6407 26.6191 40.3767 36.8896 38.0766 43.8121C34.9593 41.9876 32.5606 39.0988 31.2959 35.6462C30.0312 32.1935 29.9803 28.3946 31.1519 24.9074C34.4063 16.55 44.7321 13.1517 52.3419 16.6004C54.5877 17.485 56.5901 18.9192 58.1761 20.7789C59.7621 22.6386 60.8838 24.8678 61.4442 27.2736V27.0722C61.614 28.9106 61.397 30.7651 60.8081 32.5095Z" fill="#361041"/>
<path d="M70.7669 56.7761C70.7972 55.688 70.4639 54.6222 69.8227 53.7564C69.1815 52.8905 68.2711 52.2771 67.2434 52.0184H67.3902C63.5636 50.557 59.3757 50.4331 55.4739 51.666C57.1622 49.4759 60.3676 48.897 62.5698 47.1601C64.8452 45.0856 66.6282 42.5022 67.7817 39.6082C69.3491 36.3036 70.0665 32.6406 69.8651 28.9694C69.6638 25.2982 68.5505 21.7415 66.6316 18.6393C64.8747 15.4879 62.4948 12.7507 59.6457 10.6044C56.7965 8.45809 53.5415 6.95043 50.0908 6.17877C46.2977 5.53202 42.4086 5.84494 38.7594 7.0905C35.1102 8.33605 31.8106 10.4768 29.1455 13.3278C22.906 20.6783 19.725 30.5964 24.6188 39.4572C23.8433 39.8031 23.1578 40.332 22.6179 41.0011C22.0781 41.6702 21.6989 42.4607 21.5112 43.3086C21.3041 44.1342 21.3041 45.0003 21.5112 45.8259C21.6336 46.279 22.8081 47.8649 22.7836 48.167C22.7836 48.9725 20.3368 50.8353 19.6761 51.4142L18.159 52.8994C16.1526 54.8377 14.0728 56.7005 12.1397 58.7144C11.178 59.8089 9.99093 60.6689 8.66516 61.2316C7.63793 61.517 6.68137 62.0237 5.8588 62.718C5.03623 63.4124 4.36643 64.2786 3.89375 65.2593C3.5243 66.2593 3.38348 67.3333 3.48216 68.3983C3.58084 69.4633 3.91639 70.4906 4.46284 71.4008C5.00928 72.3109 5.75197 73.0796 6.63343 73.6471C7.51488 74.2147 8.51146 74.566 9.54603 74.6739C13.6568 75.2025 15.8834 72.6349 16.7398 68.859C17.1803 67.0214 19.1867 65.6369 20.508 64.2272C21.8293 62.8175 23.5177 61.1561 24.8635 59.6206C25.7688 58.5381 26.6986 57.4557 27.6284 56.3985C27.971 55.9957 28.5827 55.014 29.0232 54.8881C29.4636 54.7622 31.2498 55.7943 31.9105 55.9202C32.9394 56.142 34.0074 56.0743 35.0021 55.7243C35.9967 55.3744 36.8813 54.755 37.5628 53.9315C38.4681 52.6729 37.8319 52.4715 39.5203 52.6477C40.9356 52.7818 42.3566 52.8406 43.7778 52.8239C43.0438 55.014 42.2118 57.1285 41.5267 59.3185C40.9608 60.507 40.6282 61.7987 40.5479 63.1196C40.7437 64.202 41.3065 64.1768 42.4565 64.2272C45.2949 64.3531 48.1822 63.9503 51.0206 63.8748C56.4037 63.6986 63.0837 64.2524 67.904 61.3575C68.6808 60.8591 69.3405 60.1897 69.8355 59.3975C70.3305 58.6053 70.6486 57.71 70.7669 56.7761ZM13.6812 70.0421C13.3784 70.6648 12.903 71.1812 12.3151 71.5261C11.7272 71.8711 11.0531 72.0292 10.378 71.9804C9.45455 71.8359 8.59062 71.4225 7.88821 70.7891C7.18581 70.1557 6.67428 69.3287 6.41403 68.4059C6.21828 65.7627 7.73534 65.1838 9.44816 63.6734C10.2312 66.1907 12.1887 66.82 13.6812 68.4562C14.3174 69.1107 14.3419 69.01 13.6812 70.0421ZM34.5776 52.4212C32.4488 53.9064 29.1944 50.9863 27.8731 49.2242C27.0167 48.2425 26.0624 47.3866 25.1816 46.43C24.7835 46.0842 24.496 45.6231 24.3563 45.1068C24.2167 44.5904 24.2314 44.0428 24.3986 43.5352C24.6677 42.78 25.8422 41.3703 26.7231 41.471C27.604 41.5717 27.9465 42.6289 28.387 43.2834C29.4001 44.7153 30.6025 45.9947 31.9594 47.0845C33.0116 47.9404 34.602 48.4187 35.5074 49.3249C36.4127 50.2311 35.7521 51.5653 34.5776 52.3708V52.4212ZM48.5003 49.7528C40.8416 50.6591 33.2807 49.048 28.754 42.201C26.0848 38.2232 24.8534 33.4096 25.2736 28.5954C25.6937 23.7812 27.7388 19.2702 31.0541 15.8451C33.6508 12.9982 36.9734 10.9598 40.6424 9.96278C44.3114 8.96573 48.179 9.05015 51.8036 10.2064C55.9818 11.7238 59.652 14.4368 62.3828 18.0265C65.1135 21.6162 66.7913 25.9334 67.2189 30.4705C67.2184 34.7386 65.7638 38.8716 63.1081 42.1507C61.3069 44.3728 59.0805 46.1899 56.5674 47.4891C54.0544 48.7883 51.3084 49.5417 48.5003 49.7025V49.7528Z" fill="#361041"/>
<path d="M41.5756 43.8121C46.8364 44.5925 56.1345 39.7593 57.4558 35.3037C58.7771 30.8481 52.5621 30.2692 48.4513 33.9192C44.3406 37.5693 41.0373 43.359 41.5756 43.8121Z" fill="#888C0D"/>
<path d="M51.094 55.0139L52.3419 52.2197L47.4481 52.7735C47.4481 52.7735 44.2183 59.6205 45.2949 60.3254C46.3715 61.0302 65.8976 60.854 66.6072 56.4236C67.0231 53.4028 57.0644 54.6867 51.094 55.0139Z" fill="#888C0D"/>
</svg>
