<svg width="80" height="78" viewBox="0 0 80 78" fill="none" xmlns="http://www.w3.org/2000/svg">
<g clip-path="url(#clip0_131_299)">
<path d="M40.1324 0.338989C18.1141 0.338989 0.264832 17.724 0.264832 39.1695C0.264832 60.615 18.1141 78 40.1324 78C62.1507 78 80 60.615 80 39.1695C80 17.724 62.1507 0.338989 40.1324 0.338989ZM60.3185 35.5871C56.0851 35.5871 51.9659 34.2489 48.7943 31.9846L48.769 47.3803C48.7664 50.2331 47.8706 53.0172 46.2012 55.3612C44.5317 57.7052 42.168 59.4975 39.4255 60.4991C36.683 61.5006 33.6922 61.6637 30.852 60.9666C28.0119 60.2695 25.4575 58.7454 23.5299 56.5976C21.6022 54.4497 20.3929 51.7804 20.0633 48.9458C19.7338 46.1111 20.2996 43.246 21.6853 40.7327C23.071 38.2195 25.2108 36.1776 27.8189 34.8795C30.4271 33.5815 33.3797 33.0891 36.2827 33.4679V41.0285C34.9133 40.6345 33.4513 40.6704 32.104 41.1311C30.7568 41.5919 29.5926 42.4541 28.7767 43.5955C27.9609 44.7369 27.5347 46.0995 27.5586 47.49C27.5825 48.8806 28.0553 50.2285 28.91 51.3427C29.7646 52.4568 30.9577 53.2806 32.3201 53.6971C33.6825 54.1137 35.1449 54.1019 36.5 53.6634C37.855 53.2249 39.034 52.382 39.8696 51.2542C40.7052 50.1265 41.155 48.7711 41.1553 47.3803V16.9228H49.1405C49.1405 18.3525 49.4296 19.7681 49.9913 21.089C50.553 22.4098 51.3764 23.61 52.4143 24.6209C53.4522 25.6318 54.6844 26.4337 56.0406 26.9808C57.3967 27.5279 58.8502 27.8095 60.318 27.8095L60.3185 35.5871Z" fill="white" fill-opacity="0.22"/>
</g>
<defs>
<clipPath id="clip0_131_299">
<rect width="79.7352" height="77.661" fill="white" transform="translate(0.264832 0.338989)"/>
</clipPath>
</defs>
</svg>
