<svg width="81" height="78" viewBox="0 0 81 78" fill="none" xmlns="http://www.w3.org/2000/svg">
<g clip-path="url(#clip0_106_309)">
<path fill-rule="evenodd" clip-rule="evenodd" d="M80.1256 39.1695C80.1256 60.615 62.2763 78 40.2581 78C18.2398 78 0.390488 60.615 0.390488 39.1695C0.390488 17.724 18.2398 0.338989 40.2581 0.338989C62.2763 0.338989 80.1256 17.724 80.1256 39.1695ZM57.351 26.0865C59.0122 25.9247 60.8394 25.4393 62.3345 24.6304C61.1716 26.5719 59.6766 28.1898 57.6832 29.8078V30.9403C57.6832 43.0749 48.8791 56.9891 32.766 56.9891C27.7826 56.9891 23.1313 55.3712 19.3107 52.7825C20.1413 52.9443 20.8057 52.9443 21.4702 52.9443C25.4569 52.9443 29.2776 51.4881 32.2677 49.0612C28.447 49.0612 25.2908 46.4725 24.128 42.7513C24.6264 42.9131 25.2908 42.9131 25.7892 42.9131C26.6198 42.9131 27.4503 42.7513 28.1148 42.5895C24.128 41.6187 21.138 37.8975 21.138 33.529V33.3672C22.3008 34.0144 23.6297 34.4998 25.1247 34.4998C22.7991 32.8819 21.3041 30.1314 21.3041 26.8955C21.3041 25.1158 21.6363 23.4978 22.4669 22.2035C26.7859 27.7045 33.2643 31.4257 40.5734 31.7493C40.4073 31.1021 40.4073 30.2932 40.4073 29.646C40.4073 24.4686 44.394 20.4237 49.2114 20.4237C51.7031 20.4237 53.8626 21.5563 55.5237 23.336C57.6832 22.8506 59.5105 22.0417 61.1716 21.0709C60.5072 23.1742 59.1783 24.954 57.351 26.0865Z" fill="white" fill-opacity="0.22"/>
</g>
<defs>
<clipPath id="clip0_106_309">
<rect width="79.7352" height="77.661" fill="white" transform="translate(0.390488 0.338989)"/>
</clipPath>
</defs>
</svg>
