<svg width="22" height="21" viewBox="0 0 22 21" fill="none" xmlns="http://www.w3.org/2000/svg">
<path d="M15.0671 13.5804L14.5211 14.1325C14.5211 14.1325 13.2215 15.4425 9.6755 11.8644C6.12947 8.28624 7.42908 6.97621 7.42908 6.97621L7.77348 6.62772C8.62069 5.772 8.70109 4.39871 7.96068 3.39577L6.44867 1.34504C5.53187 0.102868 3.76185 -0.0604535 2.71185 0.998842L0.829033 2.89775C0.309429 3.42338 -0.0385731 4.10312 0.00342722 4.85877C0.111428 6.79104 0.973034 10.9466 5.77787 15.7968C10.8743 20.938 15.6563 21.1427 17.6112 20.9575C18.2304 20.9 18.768 20.5791 19.2012 20.1421L20.9052 18.4214C22.0572 17.2598 21.7332 15.27 20.2596 14.458L17.9676 13.1928C17.0003 12.6603 15.8231 12.8167 15.0671 13.5793V13.5804Z" fill="#F2DAAC"/>
</svg>
