<svg width="80" height="78" viewBox="0 0 80 78" fill="none" xmlns="http://www.w3.org/2000/svg">
<g clip-path="url(#clip0_106_303)">
<path fill-rule="evenodd" clip-rule="evenodd" d="M79.7351 39.1695C79.7351 60.615 61.8858 78 39.8676 78C17.8493 78 0 60.615 0 39.1695C0 17.724 17.8493 0.338989 39.8676 0.338989C61.8858 0.338989 79.7351 17.724 79.7351 39.1695ZM29.4829 57.5582C32.5898 59.2189 36.161 60.1652 39.9623 60.1652C51.9358 60.1652 61.6414 50.7847 61.6414 39.213C61.6414 27.6413 51.9353 18.2608 39.9628 18.2608C27.9888 18.2608 18.2827 27.6413 18.2827 39.213C18.2827 43.1711 19.4196 46.874 21.3931 50.0315L17.4804 61.273L29.4829 57.5582ZM21.7356 39.213C21.7356 29.4999 29.9112 21.5976 39.9623 21.5976C50.0118 21.5976 58.189 29.5003 58.189 39.2135C58.189 48.9266 50.0118 56.8284 39.9623 56.8284C36.2601 56.8284 32.8126 55.755 29.9343 53.9146L22.9304 56.0829L25.2071 49.5412C23.0255 46.6369 21.7356 43.0674 21.7356 39.213ZM50.1801 43.5759C50.5509 43.7492 50.8018 43.8664 50.9093 44.0385C51.0413 44.2526 51.0413 45.2811 50.5992 46.4811C50.1551 47.6802 47.9853 48.8367 47.0123 48.9223C46.8454 48.937 46.707 48.9692 46.5652 49.0023C45.8792 49.1624 45.1119 49.3414 40.634 47.6377C35.642 45.7372 32.3513 41.0202 31.6712 40.0453C31.6153 39.9652 31.5771 39.9104 31.557 39.8845L31.5561 39.8833C31.2864 39.5369 29.3872 37.0978 29.3872 34.5734C29.3872 32.2092 30.5888 30.9692 31.1421 30.3983C31.1801 30.359 31.2151 30.3229 31.2464 30.2899C31.7336 29.7761 32.3097 29.6475 32.6639 29.6475C32.847 29.6475 33.03 29.659 33.2069 29.6701C33.3725 29.6805 33.5327 29.6906 33.6826 29.6906C33.7197 29.6906 33.7588 29.6881 33.7994 29.6856C34.0989 29.6668 34.4882 29.6424 34.8779 30.547C35.0196 30.8764 35.225 31.3594 35.4431 31.8724C35.9061 32.9613 36.4263 34.1848 36.5167 34.3593C36.6497 34.6169 36.7385 34.9165 36.5609 35.2592C36.5351 35.3093 36.5112 35.3567 36.4883 35.402C36.3547 35.6666 36.2571 35.8598 36.03 36.1161C35.9405 36.2169 35.8481 36.3256 35.7556 36.4343C35.5733 36.6486 35.3912 36.8627 35.2326 37.0155C34.9667 37.2712 34.6894 37.5489 34.9996 38.0626C35.3092 38.5774 36.3759 40.2577 37.9554 41.6188C39.6546 43.083 41.1311 43.7018 41.8788 44.0151C42.0245 44.0762 42.1426 44.1257 42.2292 44.1675C42.7606 44.4246 43.0702 44.3816 43.3803 44.0385C43.6909 43.6958 44.7096 42.5397 45.0634 42.0255C45.4171 41.5113 45.7719 41.5978 46.2596 41.7689C46.7459 41.9395 49.3592 43.1825 49.8911 43.4392C49.9942 43.4891 50.0907 43.5341 50.1801 43.5759Z" fill="#F3F3F3" fill-opacity="0.22"/>
</g>
<defs>
<clipPath id="clip0_106_303">
<rect width="79.7351" height="77.661" fill="white" transform="translate(0 0.338989)"/>
</clipPath>
</defs>
</svg>
